<mxfile host="app.diagrams.net" modified="2024-06-09T19:03:54.202Z" agent="Mozilla/5.0 (X11; Linux x86_64) AppleWebKit/537.36 (KHTML, like Gecko) Chrome/124.0.0.0 Safari/537.36" version="24.4.13" etag="KWAc1ifWYdAW-5GRWJcu" type="github">
  <diagram name="Page-1" id="OIb20pft757lpoeVJCqo">
    <mxGraphModel>
      <root>
        <mxCell id="0" />
        <mxCell id="1" parent="0" />
      </root>
    </mxGraphModel>
  </diagram>
</mxfile>
